PathFileType	4	(X/Y/Z)	/Users/itak/Documents/Research/Walk-IL/dataset/trc/00032_00004.trc
DataRate	CameraRate	NumFrames	NumMarkers	Units	OrigDataRate	OrigDataStartFrame	OrigNumFrames
100.000000	100.000000	4	53	mm	100.000000	290	774
Frame#	Time	RPSI			LPSI			L3			STRN			T10			C7			CLAV			RBAK			LBAK			LSHO			LUPA			LAEL			LAOL			LWTS			LWPS			LFRA			LIFD			LHPS			LHTS			RSHO			RUPA			RAEL			RAOL			RWTS			RWPS			RFRA			RIFD			RHTS			RHPS			RBHD			LFHD			RFHD			LBHD			LHIP			RHIP			RASI			LASI			LKNE			LTHI			LANK			LTIP			LTOE			LMT1			LMT5			LHEE			RKNE			RTHI			RANK			RTIP			RTOE			RMT1			RMT5			RHEE			
		X1	Y1	Z1	X2	Y2	Z2	X3	Y3	Z3	X4	Y4	Z4	X5	Y5	Z5	X6	Y6	Z6	X7	Y7	Z7	X8	Y8	Z8	X9	Y9	Z9	X10	Y10	Z10	X11	Y11	Z11	X12	Y12	Z12	X13	Y13	Z13	X14	Y14	Z14	X15	Y15	Z15	X16	Y16	Z16	X17	Y17	Z17	X18	Y18	Z18	X19	Y19	Z19	X20	Y20	Z20	X21	Y21	Z21	X22	Y22	Z22	X23	Y23	Z23	X24	Y24	Z24	X25	Y25	Z25	X26	Y26	Z26	X27	Y27	Z27	X28	Y28	Z28	X29	Y29	Z29	X30	Y30	Z30	X31	Y31	Z31	X32	Y32	Z32	X33	Y33	Z33	X34	Y34	Z34	X35	Y35	Z35	X36	Y36	Z36	X37	Y37	Z37	X38	Y38	Z38	X39	Y39	Z39	X40	Y40	Z40	X41	Y41	Z41	X42	Y42	Z42	X43	Y43	Z43	X44	Y44	Z44	X45	Y45	Z45	X46	Y46	Z46	X47	Y47	Z47	X48	Y48	Z48	X49	Y49	Z49	X50	Y50	Z50	X51	Y51	Z51	X52	Y52	Z52	X53	Y53	Z53	

291	2.9	-346.3799743652344	1016.7919921875	-0.4522521793842316	-500.2782897949219	1026.203369140625	-50.08355331420898	-432.6269836425781	1088.83056640625	-23.55093765258789	-313.8310241699219	1263.575073242188	-232.0674438476562	-440.26025390625	1233.578979492188	-8.837462425231934	-397.8782958984375	1496.909057617188	-69.99007415771484	-322.7738342285156	1392.189086914062	-198.5029907226562	-373.1639099121094	1358.330688476562	22.59486389160156	-496.3489990234375	1468.776000976562	-103.4299545288086	-503.1604614257812	1471.85986328125	-228.2495422363281	-606.0631103515625	1366.780395507812	-248.9207153320312	-673.0178833007812	1163.798095703125	-284.6460571289062	-637.8738403320312	1131.947875976562	-188.6980743408203	-583.5150756835938	922.4578857421875	-370.8184509277344	-668.6422119140625	905.1392822265625	-349.125244140625	-677.72607421875	1054.095947265625	-322.7112121582031	-559.0909423828125	742.3251342773438	-419.726318359375	-647.1151123046875	822.5617065429688	-393.6013488769531	-580.8867797851562	836.8599853515625	-415.5046997070312	-213.3932952880859	1457.650512695312	-43.59382629394531	-172.0753021240234	1387.182373046875	11.27846908569336	-207.6750946044922	1133.689819335938	94.01708984375	-288.5838928222656	1108.200317382812	39.62065124511719	-181.1020355224609	863.84423828125	-10.66670322418213	-167.9039916992188	850.5634765625	80.28288269042969	-195.1092834472656	1054.933349609375	100.6256637573242	-206.1710205078125	680.656005859375	-34.35673522949219	-164.5142669677734	752.670166015625	-27.5024242401123	-158.9951782226562	745.7876586914062	47.33380889892578	-368.294189453125	1676.890869140625	-201.7816162109375	-155.7046813964844	1627.590209960938	-194.8250274658203	-207.6492309570312	1637.55615234375	-277.5059204101562	-286.1064147949219	1657.643920898438	-83.23872375488281	-582.8296508789062	936.846435546875	-169.4474945068359	-220.3153076171875	898.8592529296875	-87.51306915283203	-260.5162963867188	938.1614379882812	-202.5192565917969	-484.7225952148438	969.0367431640625	-268.581298828125	-604.5698852539062	499.9288330078125	-122.4449462890625	-614.177490234375	641.6463623046875	-135.2613830566406	-726.33544921875	74.37726593017578	119.9083709716797	-686.6570434570312	303.763427734375	19.76773834228516	-600.326171875	40.84226608276367	-62.03608322143555	-604.02392578125	53.99142074584961	-2.329552888870239	-711.347412109375	40.12434768676758	-0.9585670232772827	-699.4410400390625	101.1574859619141	199.6419830322266	-195.4984283447266	517.1714477539062	-263.6257629394531	-198.1454620361328	754.5684814453125	-146.1853790283203	-216.6614685058594	37.87163543701172	-392.3547668457031	-192.5046844482422	393.53466796875	-291.26513671875	-71.28010559082031	126.3694229125977	-549.8134155273438	-137.9535217285156	109.6606903076172	-538.2897338867188	-91.15499114990234	82.39441680908203	-457.72900390625	-286.8201904296875	27.45762634277344	-396.8308715820312	
292	2.91	-340.8327941894531	1016.106323242188	-9.719693183898926	-494.5639343261719	1025.457641601562	-59.85487365722656	-427.1623229980469	1087.904418945312	-33.02193832397461	-307.0272521972656	1262.830078125	-240.3274230957031	-434.6605529785156	1232.476684570312	-17.87494850158691	-391.6135559082031	1495.859741210938	-78.19640350341797	-315.7526245117188	1391.31201171875	-206.5560302734375	-367.6976013183594	1356.989868164062	14.19122123718262	-489.9156188964844	1467.995849609375	-112.3005523681641	-495.9327087402344	1471.274047851562	-237.2398681640625	-598.7030639648438	1366.207885742188	-258.5848999023438	-665.3489379882812	1163.203857421875	-294.6885070800781	-631.08349609375	1131.509521484375	-198.38916015625	-573.7728271484375	922.4523315429688	-379.8588256835938	-659.1082153320312	904.7095336914062	-359.5723266601562	-669.1388549804688	1053.559814453125	-332.9303588867188	-547.7066650390625	742.4469604492188	-428.6707763671875	-636.4396362304688	822.2452392578125	-403.7626342773438	-569.9939575195312	836.9027099609375	-424.7109375	-207.4085998535156	1456.281372070312	-50.68927001953125	-166.5475616455078	1385.672119140625	4.361299991607666	-203.4406127929688	1132.251098632812	86.68952178955078	-283.8835144042969	1106.988525390625	31.6430492401123	-176.4051818847656	862.4152221679688	-17.84723663330078	-164.1075286865234	849.06884765625	73.19394683837891	-191.1069946289062	1053.483276367188	93.38324737548828	-201.5548553466797	679.2777099609375	-41.97552490234375	-159.8128051757812	751.2615356445312	-34.62807846069336	-155.0408630371094	744.2940673828125	40.27578353881836	-361.1006774902344	1675.894653320312	-209.6474609375	-148.5682373046875	1626.769409179688	-200.6422729492188	-199.6930389404297	1636.869750976562	-283.8360900878906	-280.046142578125	1656.611328125	-90.32586669921875	-576.967041015625	935.681640625	-179.1040802001953	-214.5783081054688	898.4718627929688	-96.92940521240234	-254.7486877441406	937.4735717773438	-211.9307403564453	-478.8784484863281	968.1646728515625	-278.4603271484375	-600.8977661132812	499.0350952148438	-131.4913787841797	-609.5662841796875	641.0704956054688	-144.559326171875	-726.5215454101562	77.94361114501953	118.2186660766602	-684.582275390625	305.3794250488281	13.87911319732666	-600.4480590820312	40.97642517089844	-62.09750366210938	-604.0750732421875	54.61531448364258	-2.771866798400879	-711.3325805664062	40.6468505859375	-1.86697781085968	-699.7196044921875	106.4457702636719	197.4779968261719	-189.6528015136719	516.4028930664062	-271.3964233398438	-192.2771911621094	754.3402099609375	-155.6219177246094	-214.9671936035156	36.26438522338867	-395.0961303710938	-187.2119293212891	391.8970947265625	-298.3392944335938	-67.35462951660156	118.8598098754883	-552.988037109375	-134.2182312011719	103.4170532226562	-541.8919677734375	-88.50389099121094	77.05854797363281	-460.4307556152344	-285.0535583496094	27.09544372558594	-399.9558715820312	
293	2.92	-335.1804504394531	1015.649047851562	-19.07777786254883	-488.7621459960938	1024.951538085938	-69.8406982421875	-421.5663146972656	1087.098876953125	-42.63887405395508	-300.0233154296875	1262.195068359375	-248.6453094482422	-428.9139709472656	1231.5224609375	-26.9964485168457	-385.1372680664062	1494.963500976562	-86.41098785400391	-308.5901489257812	1390.546875	-214.6352386474609	-362.0269775390625	1355.76953125	5.754252433776855	-483.2835388183594	1467.364135742188	-121.1867904663086	-488.5114440917969	1470.829223632812	-246.2316741943359	-591.1707763671875	1365.775024414062	-268.1838684082031	-657.5548706054688	1162.737915039062	-304.561767578125	-624.1165161132812	1131.23095703125	-207.9346160888672	-564.0449829101562	922.5184326171875	-388.5948486328125	-649.5399780273438	904.3822631835938	-369.6924743652344	-660.4631958007812	1053.13818359375	-342.9080810546875	-536.4049682617188	742.6223754882812	-437.3040771484375	-625.7982788085938	822.0081176757812	-413.5797424316406	-559.1834106445312	837.004638671875	-433.6288757324219	-201.1884918212891	1455.006103515625	-57.83759307861328	-160.7905578613281	1384.236938476562	-2.628912210464478	-198.9258728027344	1130.87841796875	79.25660705566406	-278.956787109375	1105.867431640625	23.60270118713379	-171.5064239501953	861.0311279296875	-25.07414054870605	-160.1022033691406	847.6375732421875	66.05108642578125	-186.8448638916016	1052.117431640625	86.03108215332031	-196.7643127441406	677.949951171875	-49.58499145507812	-154.9458923339844	749.8931274414062	-41.77895736694336	-150.8941802978516	742.8712158203125	33.18416213989258	-353.705078125	1675.10302734375	-217.4595489501953	-141.2576751708984	1626.135986328125	-206.4205017089844	-191.5511322021484	1636.395751953125	-290.1191711425781	-273.8184204101562	1655.7119140625	-97.38394165039062	-570.8589477539062	934.5125732421875	-189.0989990234375	-208.6631011962891	898.3524169921875	-106.2524108886719	-248.6931762695312	936.9666748046875	-221.2897644042969	-472.6500549316406	967.3878173828125	-288.546875	-596.9196166992188	498.1380004882812	-141.1070098876953	-604.6563110351562	640.4905395507812	-154.3489074707031	-726.7062377929688	81.84513854980469	116.1941146850586	-682.3908081054688	307.1549987792969	7.451209545135498	-600.5720825195312	41.1129264831543	-62.16429901123047	-604.1406860351562	55.27216720581055	-3.306068181991577	-711.2896728515625	41.21101760864258	-2.899810552597046	-700.0204467773438	112.1952285766602	194.8552703857422	-183.5525207519531	515.7552490234375	-279.0841369628906	-186.1757202148438	754.2970581054688	-164.8790893554688	-213.9704284667969	34.94393157958984	-397.0022277832031	-181.8326873779297	390.4393615722656	-305.2843322753906	-63.92498779296875	110.2567749023438	-555.6615600585938	-130.9776458740234	96.39994812011719	-544.9705810546875	-86.48252105712891	71.19558715820312	-462.4999389648438	-283.9755249023438	27.26263999938965	-402.2702941894531	
294	2.93	-329.4815063476562	1015.472839355469	-28.48289680480957	-482.9156799316406	1024.687377929688	-80.05820465087891	-415.8678283691406	1086.442993164062	-52.40243911743164	-292.8296508789062	1261.706665039062	-256.9928588867188	-423.0561828613281	1230.757202148438	-36.1967658996582	-378.4784545898438	1494.256225585938	-94.63011932373047	-301.2973327636719	1389.927368164062	-222.7240447998047	-356.1865234375	1354.713989257812	-2.707237482070923	-476.4767456054688	1466.921142578125	-130.0949401855469	-480.9086303710938	1470.553833007812	-255.2288970947266	-583.4756469726562	1365.503173828125	-277.7251586914062	-649.6318359375	1162.416015625	-314.2710876464844	-616.9773559570312	1131.12353515625	-217.3435668945312	-554.337646484375	922.6566162109375	-397.0611877441406	-639.9607543945312	904.1656494140625	-379.4755554199219	-651.7073974609375	1052.841796875	-352.6444396972656	-525.232666015625	742.8495483398438	-445.6448974609375	-615.2357788085938	821.855224609375	-423.052734375	-548.488037109375	837.1677856445312	-442.2686462402344	-194.7567749023438	1453.860107421875	-65.01834106445312	-154.8389434814453	1382.907958984375	-9.669684410095215	-194.1334991455078	1129.588134765625	71.71461486816406	-273.7998962402344	1104.861694335938	15.48988056182861	-166.4248962402344	859.7127075195312	-32.35488891601562	-155.8974456787109	846.2866821289062	58.86967849731445	-182.3209838867188	1050.860229492188	78.56253814697266	-191.8138732910156	676.6875610351562	-57.16367340087891	-149.9252014160156	748.5753173828125	-48.94845581054688	-146.5580596923828	741.538330078125	26.06361198425293	-346.1040954589844	1674.543090820312	-225.2283477783203	-133.7800598144531	1625.699829101562	-212.1643218994141	-183.2283935546875	1636.142456054688	-296.3587341308594	-267.4211730957031	1654.978149414062	-104.4202194213867	-564.515380859375	933.3950805664062	-199.4572448730469	-202.6095886230469	898.5465698242188	-115.3815078735352	-242.3306884765625	936.6716918945312	-230.5174102783203	-466.0093688964844	966.7366943359375	-298.8071594238281	-592.5980224609375	497.2582702636719	-151.3531188964844	-599.4303588867188	639.9263305664062	-164.67626953125	-726.8345947265625	86.0977783203125	113.7859497070312	-680.0638427734375	309.1259765625	0.4311545491218567	-600.690185546875	41.23583602905273	-62.24454116821289	-604.2049560546875	55.95157623291016	-3.96541166305542	-711.2044677734375	41.80562591552734	-4.055276393890381	-700.2590942382812	118.4327392578125	191.6878356933594	-177.2031097412109	515.2826538085938	-286.6588439941406	-179.8494567871094	754.4453125	-173.8112182617188	-213.3178558349609	33.98539352416992	-398.3326110839844	-176.3106384277344	389.2704467773438	-312.1198425292969	-60.8177604675293	101.1311416625977	-558.0123291015625	-128.0446014404297	89.08574676513672	-547.680908203125	-84.818359375	65.20990753173828	-464.154296875	-283.2430114746094	27.93758201599121	-404.0294189453125	
